<svg xmlns="http://www.w3.org/2000/svg" viewBox="0 0 45 45">
  <path fill="#000000" d="M 11,34 L 34,34 L 34,31 L 11,31 L 11,34 z M 12,30 L 33,30 L 33,24 L 12,24 L 12,30 z M 13,23 L 32,23 L 32,21 L 13,21 L 13,23 z M 15,20 L 30,20 L 30,18 L 15,18 L 15,20 z M 16,17 L 29,17 L 29,15 L 16,15 L 16,17 z M 18,14 L 27,14 L 27,12 L 18,12 L 18,14 z M 19,11 L 26,11 L 26,9 L 19,9 L 19,11 z M 20,8 L 25,8 L 25,6 L 20,6 L 20,8 z M 21,5 L 24,5 L 24,3 L 21,3 L 21,5 z M 22,2 L 23,2 L 23,0 L 22,0 L 22,2 z" />
</svg>
